<mxfile host="65bd71144e">
    <diagram id="_qm1-AJe0AePabwUvn4U" name="Page-1">
        <mxGraphModel dx="976" dy="790" grid="0" gridSize="10" guides="1" tooltips="1" connect="1" arrows="1" fold="1" page="1" pageScale="1" pageWidth="583" pageHeight="827" background="#ffffff" math="0" shadow="0">
            <root>
                <object label="" id="0">
                    <mxCell/>
                </object>
                <mxCell id="1" parent="0"/>
                <mxCell id="13" style="edgeStyle=orthogonalEdgeStyle;rounded=0;orthogonalLoop=1;jettySize=auto;html=1;exitX=0.5;exitY=1;exitDx=0;exitDy=0;entryX=0.5;entryY=0;entryDx=0;entryDy=0;fontColor=#000000;labelBackgroundColor=none;sketch=0;shadow=0;fillColor=#f5f5f5;strokeColor=#000000;" parent="1" source="2" target="7" edge="1">
                    <mxGeometry relative="1" as="geometry"/>
                </mxCell>
                <mxCell id="55" style="edgeStyle=orthogonalEdgeStyle;rounded=0;orthogonalLoop=1;jettySize=auto;html=1;entryX=1;entryY=0.5;entryDx=0;entryDy=0;entryPerimeter=0;dashed=1;fontColor=#000000;strokeColor=#080808;" edge="1" parent="1" source="2" target="32">
                    <mxGeometry relative="1" as="geometry"/>
                </mxCell>
                <mxCell id="2" value="Query Builder" style="rounded=0;whiteSpace=wrap;html=1;labelBackgroundColor=none;sketch=0;shadow=0;fillColor=#f5f5f5;fontColor=#333333;strokeColor=#000000;labelPosition=center;verticalLabelPosition=bottom;align=center;verticalAlign=top;" parent="1" vertex="1">
                    <mxGeometry x="267" y="430" width="187" height="100" as="geometry"/>
                </mxCell>
                <mxCell id="10" style="edgeStyle=orthogonalEdgeStyle;rounded=0;orthogonalLoop=1;jettySize=auto;html=1;exitX=0.5;exitY=1;exitDx=0;exitDy=0;entryX=0.5;entryY=0;entryDx=0;entryDy=0;fontColor=#000000;labelBackgroundColor=none;sketch=0;fillColor=#f5f5f5;strokeColor=#000000;" parent="1" source="3" target="6" edge="1">
                    <mxGeometry relative="1" as="geometry"/>
                </mxCell>
                <mxCell id="38" style="edgeStyle=orthogonalEdgeStyle;rounded=0;orthogonalLoop=1;jettySize=auto;html=1;entryX=1;entryY=0.5;entryDx=0;entryDy=0;entryPerimeter=0;dashed=1;dashPattern=1 4;fontColor=#000000;strokeColor=#080808;" edge="1" parent="1" source="3" target="30">
                    <mxGeometry relative="1" as="geometry"/>
                </mxCell>
                <mxCell id="3" value="Parser" style="rounded=0;whiteSpace=wrap;html=1;labelBackgroundColor=none;sketch=0;fillColor=#f5f5f5;fontColor=#333333;strokeColor=#000000;" parent="1" vertex="1">
                    <mxGeometry x="294" y="103" width="120" height="60" as="geometry"/>
                </mxCell>
                <mxCell id="35" style="edgeStyle=orthogonalEdgeStyle;rounded=0;orthogonalLoop=1;jettySize=auto;html=1;entryX=0.465;entryY=0.01;entryDx=0;entryDy=0;entryPerimeter=0;fontColor=#000000;strokeColor=#080808;" edge="1" parent="1" source="4" target="2">
                    <mxGeometry relative="1" as="geometry"/>
                </mxCell>
                <mxCell id="42" style="edgeStyle=orthogonalEdgeStyle;rounded=0;orthogonalLoop=1;jettySize=auto;html=1;entryX=1;entryY=0.5;entryDx=0;entryDy=0;fontColor=#000000;strokeColor=#080808;dashed=1;" edge="1" parent="1" source="4" target="5">
                    <mxGeometry relative="1" as="geometry"/>
                </mxCell>
                <mxCell id="4" value="Operand Manager" style="rounded=0;whiteSpace=wrap;html=1;labelBackgroundColor=none;sketch=0;fillColor=#f5f5f5;fontColor=#333333;strokeColor=#000000;" parent="1" vertex="1">
                    <mxGeometry x="294" y="314" width="120" height="60" as="geometry"/>
                </mxCell>
                <mxCell id="37" style="edgeStyle=orthogonalEdgeStyle;rounded=0;orthogonalLoop=1;jettySize=auto;html=1;entryX=0.5;entryY=0;entryDx=0;entryDy=0;entryPerimeter=0;fontColor=#000000;strokeColor=#080808;dashed=1;dashPattern=1 4;" edge="1" parent="1" source="5" target="36">
                    <mxGeometry relative="1" as="geometry"/>
                </mxCell>
                <mxCell id="5" value="Schema Manager&amp;nbsp;" style="rounded=0;whiteSpace=wrap;html=1;labelBackgroundColor=none;sketch=0;fillColor=#f5f5f5;fontColor=#333333;strokeColor=#000000;" parent="1" vertex="1">
                    <mxGeometry x="41.5" y="214" width="120" height="60" as="geometry"/>
                </mxCell>
                <mxCell id="11" style="edgeStyle=orthogonalEdgeStyle;rounded=0;orthogonalLoop=1;jettySize=auto;html=1;exitX=0.5;exitY=1;exitDx=0;exitDy=0;entryX=0.5;entryY=0;entryDx=0;entryDy=0;fontColor=#000000;labelBackgroundColor=none;sketch=0;fillColor=#f5f5f5;strokeColor=#000000;" parent="1" target="4" edge="1">
                    <mxGeometry relative="1" as="geometry">
                        <mxPoint x="354" y="284" as="sourcePoint"/>
                    </mxGeometry>
                </mxCell>
                <mxCell id="41" style="edgeStyle=orthogonalEdgeStyle;rounded=0;orthogonalLoop=1;jettySize=auto;html=1;entryX=1;entryY=0.5;entryDx=0;entryDy=0;fontColor=#000000;strokeColor=#080808;dashed=1;" edge="1" parent="1" source="6" target="5">
                    <mxGeometry relative="1" as="geometry"/>
                </mxCell>
                <mxCell id="6" value="Expression Completer" style="rounded=0;whiteSpace=wrap;html=1;strokeWidth=1;labelBackgroundColor=none;sketch=0;fillColor=#f5f5f5;fontColor=#333333;strokeColor=#000000;" parent="1" vertex="1">
                    <mxGeometry x="294" y="214" width="120" height="60" as="geometry"/>
                </mxCell>
                <mxCell id="53" style="edgeStyle=orthogonalEdgeStyle;rounded=0;orthogonalLoop=1;jettySize=auto;html=1;entryX=0.995;entryY=0.584;entryDx=0;entryDy=0;entryPerimeter=0;dashed=1;fontColor=#000000;strokeColor=#080808;" edge="1" parent="1" source="7" target="43">
                    <mxGeometry relative="1" as="geometry"/>
                </mxCell>
                <mxCell id="7" value="Query Executor" style="rounded=0;whiteSpace=wrap;html=1;labelBackgroundColor=none;sketch=0;shadow=0;fillColor=#f5f5f5;fontColor=#333333;strokeColor=#000000;" parent="1" vertex="1">
                    <mxGeometry x="300" y="586" width="120" height="60" as="geometry"/>
                </mxCell>
                <mxCell id="19" style="edgeStyle=orthogonalEdgeStyle;rounded=0;orthogonalLoop=1;jettySize=auto;html=1;entryX=0.5;entryY=0;entryDx=0;entryDy=0;fontColor=#000000;labelBackgroundColor=none;sketch=0;fillColor=#f5f5f5;strokeColor=#000000;" parent="1" source="18" target="3" edge="1">
                    <mxGeometry relative="1" as="geometry"/>
                </mxCell>
                <mxCell id="18" value="Expression" style="ellipse;whiteSpace=wrap;html=1;labelBackgroundColor=none;sketch=0;fillColor=#f5f5f5;fontColor=#333333;strokeColor=#000000;" parent="1" vertex="1">
                    <mxGeometry x="294" y="23" width="120" height="40" as="geometry"/>
                </mxCell>
                <mxCell id="21" style="edgeStyle=orthogonalEdgeStyle;rounded=0;orthogonalLoop=1;jettySize=auto;html=1;entryX=0;entryY=0.5;entryDx=0;entryDy=0;fontColor=#000000;labelBackgroundColor=none;sketch=0;fillColor=#f5f5f5;strokeColor=#000000;" parent="1" source="20" target="18" edge="1">
                    <mxGeometry relative="1" as="geometry"/>
                </mxCell>
                <mxCell id="20" value="lambda" style="ellipse;whiteSpace=wrap;html=1;labelBackgroundColor=none;sketch=0;fillColor=#f5f5f5;fontColor=#333333;strokeColor=#000000;" parent="1" vertex="1">
                    <mxGeometry x="49" y="23" width="100" height="40" as="geometry"/>
                </mxCell>
                <mxCell id="28" value="SQL" style="rounded=0;whiteSpace=wrap;html=1;labelBackgroundColor=none;sketch=0;shadow=0;fillColor=#f5f5f5;fontColor=#333333;strokeColor=#000000;labelPosition=center;verticalLabelPosition=middle;align=center;verticalAlign=middle;" vertex="1" parent="1">
                    <mxGeometry x="281" y="450" width="69" height="52" as="geometry"/>
                </mxCell>
                <mxCell id="29" value="NoSQL" style="rounded=0;whiteSpace=wrap;html=1;labelBackgroundColor=none;sketch=0;shadow=0;fillColor=#f5f5f5;fontColor=#333333;strokeColor=#000000;labelPosition=center;verticalLabelPosition=middle;align=center;verticalAlign=middle;" vertex="1" parent="1">
                    <mxGeometry x="367" y="450" width="69" height="52" as="geometry"/>
                </mxCell>
                <mxCell id="30" value="Model Config" style="verticalLabelPosition=bottom;html=1;verticalAlign=top;align=center;shape=mxgraph.azure.code_file;pointerEvents=1;fontColor=#000000;strokeWidth=1;" vertex="1" parent="1">
                    <mxGeometry x="53" y="106" width="61" height="54" as="geometry"/>
                </mxCell>
                <mxCell id="32" value="Dialect Config" style="verticalLabelPosition=bottom;html=1;verticalAlign=top;align=center;shape=mxgraph.azure.code_file;pointerEvents=1;fontColor=#000000;strokeWidth=1;" vertex="1" parent="1">
                    <mxGeometry x="71" y="453" width="61" height="54" as="geometry"/>
                </mxCell>
                <mxCell id="36" value="Schema Config" style="verticalLabelPosition=bottom;html=1;verticalAlign=top;align=center;shape=mxgraph.azure.code_file;pointerEvents=1;fontColor=#000000;strokeWidth=1;" vertex="1" parent="1">
                    <mxGeometry x="71" y="309" width="61" height="54" as="geometry"/>
                </mxCell>
                <mxCell id="43" value="Connection Manager" style="rounded=0;whiteSpace=wrap;html=1;labelBackgroundColor=none;sketch=0;shadow=0;fillColor=#f5f5f5;fontColor=#333333;strokeColor=#000000;labelPosition=center;verticalLabelPosition=bottom;align=center;verticalAlign=top;" vertex="1" parent="1">
                    <mxGeometry x="13" y="557" width="198" height="101" as="geometry"/>
                </mxCell>
                <mxCell id="44" value="MySQL" style="rounded=0;whiteSpace=wrap;html=1;labelBackgroundColor=none;sketch=0;shadow=0;fillColor=#f5f5f5;fontColor=#333333;strokeColor=#000000;labelPosition=center;verticalLabelPosition=middle;align=center;verticalAlign=middle;" vertex="1" parent="1">
                    <mxGeometry x="21" y="569" width="50" height="36" as="geometry"/>
                </mxCell>
                <mxCell id="46" value="Postgres" style="rounded=0;whiteSpace=wrap;html=1;labelBackgroundColor=none;sketch=0;shadow=0;fillColor=#f5f5f5;fontColor=#333333;strokeColor=#000000;labelPosition=center;verticalLabelPosition=middle;align=center;verticalAlign=middle;" vertex="1" parent="1">
                    <mxGeometry x="76.5" y="569" width="50" height="36" as="geometry"/>
                </mxCell>
                <mxCell id="47" value="Mssql" style="rounded=0;whiteSpace=wrap;html=1;labelBackgroundColor=none;sketch=0;shadow=0;fillColor=#f5f5f5;fontColor=#333333;strokeColor=#000000;labelPosition=center;verticalLabelPosition=middle;align=center;verticalAlign=middle;" vertex="1" parent="1">
                    <mxGeometry x="138" y="569" width="50" height="36" as="geometry"/>
                </mxCell>
                <mxCell id="48" value="Oracle" style="rounded=0;whiteSpace=wrap;html=1;labelBackgroundColor=none;sketch=0;shadow=0;fillColor=#f5f5f5;fontColor=#333333;strokeColor=#000000;labelPosition=center;verticalLabelPosition=middle;align=center;verticalAlign=middle;" vertex="1" parent="1">
                    <mxGeometry x="21" y="614" width="50" height="36" as="geometry"/>
                </mxCell>
                <mxCell id="50" value="Mongo" style="rounded=0;whiteSpace=wrap;html=1;labelBackgroundColor=none;sketch=0;shadow=0;fillColor=#f5f5f5;fontColor=#333333;strokeColor=#000000;labelPosition=center;verticalLabelPosition=middle;align=center;verticalAlign=middle;" vertex="1" parent="1">
                    <mxGeometry x="79" y="614" width="50" height="36" as="geometry"/>
                </mxCell>
                <mxCell id="52" value="Sqljs" style="rounded=0;whiteSpace=wrap;html=1;labelBackgroundColor=none;sketch=0;shadow=0;fillColor=#f5f5f5;fontColor=#333333;strokeColor=#000000;labelPosition=center;verticalLabelPosition=middle;align=center;verticalAlign=middle;" vertex="1" parent="1">
                    <mxGeometry x="138" y="614" width="50" height="36" as="geometry"/>
                </mxCell>
            </root>
        </mxGraphModel>
    </diagram>
</mxfile>